<svg width="16" height="16" viewBox="0 0 16 16" fill="none" xmlns="http://www.w3.org/2000/svg">
<path d="M5.33398 4V8" stroke="#22326E" stroke-width="1.33333" stroke-linecap="round" stroke-linejoin="round"/>
<path d="M10 4V8" stroke="#22326E" stroke-width="1.33333" stroke-linecap="round" stroke-linejoin="round"/>
<path d="M1.33398 8H14.4007" stroke="#22326E" stroke-width="1.33333" stroke-linecap="round" stroke-linejoin="round"/>
<path d="M12.0007 12H14.0007C14.0007 12 14.334 10.8667 14.534 10.1333C14.6006 9.86667 14.6673 9.6 14.6673 9.33333C14.6673 9.06667 14.6006 8.8 14.534 8.53333L13.6007 5.2C13.4007 4.53333 12.734 4 12.0007 4H2.66732C2.3137 4 1.97456 4.14048 1.72451 4.39052C1.47446 4.64057 1.33398 4.97971 1.33398 5.33333V12H3.33398" stroke="#22326E" stroke-width="1.33333" stroke-linecap="round" stroke-linejoin="round"/>
<path d="M4.66732 13.3334C5.4037 13.3334 6.00065 12.7365 6.00065 12.0001C6.00065 11.2637 5.4037 10.6667 4.66732 10.6667C3.93094 10.6667 3.33398 11.2637 3.33398 12.0001C3.33398 12.7365 3.93094 13.3334 4.66732 13.3334Z" stroke="#22326E" stroke-width="1.33333" stroke-linecap="round" stroke-linejoin="round"/>
<path d="M6 12H9.33333" stroke="#22326E" stroke-width="1.33333" stroke-linecap="round" stroke-linejoin="round"/>
<path d="M10.6673 13.3334C11.4037 13.3334 12.0007 12.7365 12.0007 12.0001C12.0007 11.2637 11.4037 10.6667 10.6673 10.6667C9.93094 10.6667 9.33398 11.2637 9.33398 12.0001C9.33398 12.7365 9.93094 13.3334 10.6673 13.3334Z" stroke="#22326E" stroke-width="1.33333" stroke-linecap="round" stroke-linejoin="round"/>
</svg>
