<svg width="84" height="78" viewBox="0 0 84 78" fill="none" xmlns="http://www.w3.org/2000/svg">
<path d="M43.7179 14.8945C39.2799 14.8945 36.1667 15.6784 34.3782 17.2462C32.656 18.7487 31.7949 21.1985 31.7949 24.5955V77.0201H11.5256V25.5754C11.5256 20.1533 12.6517 15.5477 14.9038 11.7588C17.156 7.90452 20.4679 4.99749 24.8397 3.03768C29.2778 1.01256 34.7425 0 41.234 0C44.1485 0 46.7318 0.195979 48.984 0.587938C51.3023 0.979897 53.7532 1.53517 56.3365 2.25377V16.9523C54.3493 16.2337 52.2959 15.7111 50.1763 15.3844C48.1229 15.0578 45.9701 14.8945 43.7179 14.8945ZM0 40.4698V25.6734H54.9455V40.4698H0Z" fill="#111111"/>
<path d="M72.5737 78C70.4541 78 68.5 77.51 66.7115 76.5302C64.9893 75.5502 63.6314 74.2111 62.6378 72.5126C61.6443 70.7487 61.1475 68.8216 61.1475 66.7312C61.1475 64.6407 61.6443 62.7462 62.6378 61.0477C63.6314 59.3492 64.9893 58.01 66.7115 57.0301C68.5 55.9849 70.4541 55.4623 72.5737 55.4623C74.7596 55.4623 76.7137 55.9849 78.4359 57.0301C80.1582 58.01 81.516 59.3492 82.5096 61.0477C83.5032 62.7462 84 64.6407 84 66.7312C84 68.8216 83.5032 70.7487 82.5096 72.5126C81.516 74.2111 80.1582 75.5502 78.4359 76.5302C76.7137 77.51 74.7596 78 72.5737 78Z" fill="#CB4E00"/>
</svg>
