<svg width="683" height="615" viewBox="0 0 683 615" fill="none" xmlns="http://www.w3.org/2000/svg">
<g clip-path="url(#paint0_diamond_406_3106_clip_path)" data-figma-skip-parse="true"><g transform="matrix(0 0.3075 -0.342 0 341.203 307.5)"><rect x="0" y="0" width="1003.25" height="1002.92" fill="url(#paint0_diamond_406_3106)" opacity="1" shape-rendering="crispEdges"/><rect x="0" y="0" width="1003.25" height="1002.92" transform="scale(1 -1)" fill="url(#paint0_diamond_406_3106)" opacity="1" shape-rendering="crispEdges"/><rect x="0" y="0" width="1003.25" height="1002.92" transform="scale(-1 1)" fill="url(#paint0_diamond_406_3106)" opacity="1" shape-rendering="crispEdges"/><rect x="0" y="0" width="1003.25" height="1002.92" transform="scale(-1)" fill="url(#paint0_diamond_406_3106)" opacity="1" shape-rendering="crispEdges"/></g></g><path d="M341.203 0L346.804 233.872L387.772 2.86407L357.903 235.244L433.474 11.4029L368.69 237.961L477.456 25.4575L378.965 241.974L518.901 44.766L388.537 247.208L557.035 68.9688L397.227 253.564L591.149 97.6149L404.874 260.926L620.607 130.171L411.334 269.155L644.86 166.03L416.488 278.098L663.456 204.525L420.239 287.589L676.05 244.937L422.519 297.451L682.406 286.515L423.283 307.5L682.406 328.485L422.519 317.549L676.05 370.063L420.239 327.411L663.456 410.475L416.488 336.902L644.86 448.97L411.334 345.845L620.607 484.829L404.874 354.074L591.149 517.385L397.227 361.436L557.035 546.031L388.537 367.792L518.901 570.234L378.965 373.026L477.456 589.542L368.69 377.039L433.474 603.597L357.903 379.756L387.772 612.136L346.804 381.128L341.203 615L335.602 381.128L294.634 612.136L324.503 379.756L248.933 603.597L313.716 377.039L204.95 589.542L303.441 373.026L163.505 570.234L293.869 367.792L125.371 546.031L285.179 361.436L91.2572 517.385L277.533 354.074L61.7994 484.829L271.072 345.845L37.5464 448.97L265.918 336.902L18.9499 410.475L262.167 327.411L6.35635 370.063L259.888 317.549L0.000396729 328.485L259.123 307.5L0.000396729 286.515L259.888 297.451L6.35635 244.937L262.167 287.589L18.9499 204.525L265.918 278.098L37.5464 166.03L271.072 269.155L61.7994 130.171L277.533 260.926L91.2572 97.6149L285.179 253.564L125.371 68.9688L293.869 247.208L163.505 44.766L303.441 241.974L204.95 25.4575L313.716 237.961L248.933 11.4029L324.503 235.244L294.634 2.86407L335.602 233.872L341.203 0Z" data-figma-gradient-fill="{&#34;type&#34;:&#34;GRADIENT_DIAMOND&#34;,&#34;stops&#34;:[{&#34;color&#34;:{&#34;r&#34;:0.94117647409439087,&#34;g&#34;:0.70196080207824707,&#34;b&#34;:0.13725490868091583,&#34;a&#34;:1.0},&#34;position&#34;:0.35096153616905212},{&#34;color&#34;:{&#34;r&#34;:0.13333334028720856,&#34;g&#34;:0.19607843458652496,&#34;b&#34;:0.43137255311012268,&#34;a&#34;:0.80000001192092896},&#34;position&#34;:1.0}],&#34;stopsVar&#34;:[{&#34;color&#34;:{&#34;r&#34;:0.94117647409439087,&#34;g&#34;:0.70196080207824707,&#34;b&#34;:0.13725490868091583,&#34;a&#34;:1.0},&#34;position&#34;:0.35096153616905212},{&#34;color&#34;:{&#34;r&#34;:0.13333334028720856,&#34;g&#34;:0.19607843458652496,&#34;b&#34;:0.43137255311012268,&#34;a&#34;:0.80000001192092896},&#34;position&#34;:1.0}],&#34;transform&#34;:{&#34;m00&#34;:4.1882923046627010e-14,&#34;m01&#34;:-684.0,&#34;m02&#34;:683.2031250,&#34;m10&#34;:615.0,&#34;m11&#34;:3.7657892212536459e-14,&#34;m12&#34;:-3.7657892212536459e-14},&#34;opacity&#34;:1.0,&#34;blendMode&#34;:&#34;NORMAL&#34;,&#34;visible&#34;:true}"/>
<defs>
<clipPath id="paint0_diamond_406_3106_clip_path"><path d="M341.203 0L346.804 233.872L387.772 2.86407L357.903 235.244L433.474 11.4029L368.69 237.961L477.456 25.4575L378.965 241.974L518.901 44.766L388.537 247.208L557.035 68.9688L397.227 253.564L591.149 97.6149L404.874 260.926L620.607 130.171L411.334 269.155L644.86 166.03L416.488 278.098L663.456 204.525L420.239 287.589L676.05 244.937L422.519 297.451L682.406 286.515L423.283 307.5L682.406 328.485L422.519 317.549L676.05 370.063L420.239 327.411L663.456 410.475L416.488 336.902L644.86 448.97L411.334 345.845L620.607 484.829L404.874 354.074L591.149 517.385L397.227 361.436L557.035 546.031L388.537 367.792L518.901 570.234L378.965 373.026L477.456 589.542L368.69 377.039L433.474 603.597L357.903 379.756L387.772 612.136L346.804 381.128L341.203 615L335.602 381.128L294.634 612.136L324.503 379.756L248.933 603.597L313.716 377.039L204.95 589.542L303.441 373.026L163.505 570.234L293.869 367.792L125.371 546.031L285.179 361.436L91.2572 517.385L277.533 354.074L61.7994 484.829L271.072 345.845L37.5464 448.97L265.918 336.902L18.9499 410.475L262.167 327.411L6.35635 370.063L259.888 317.549L0.000396729 328.485L259.123 307.5L0.000396729 286.515L259.888 297.451L6.35635 244.937L262.167 287.589L18.9499 204.525L265.918 278.098L37.5464 166.03L271.072 269.155L61.7994 130.171L277.533 260.926L91.2572 97.6149L285.179 253.564L125.371 68.9688L293.869 247.208L163.505 44.766L303.441 241.974L204.95 25.4575L313.716 237.961L248.933 11.4029L324.503 235.244L294.634 2.86407L335.602 233.872L341.203 0Z"/></clipPath><linearGradient id="paint0_diamond_406_3106" x1="0" y1="0" x2="500" y2="500" gradientUnits="userSpaceOnUse">
<stop offset="0.350962" stop-color="#F0B323"/>
<stop offset="1" stop-color="#22326E" stop-opacity="0.8"/>
</linearGradient>
</defs>
</svg>
