<svg width="20" height="20" viewBox="0 0 20 20" fill="none" xmlns="http://www.w3.org/2000/svg">
<path d="M10 11.6667L17.5 7.50004L10 3.33337L2.5 7.50004L10 11.6667Z" stroke="white" stroke-width="0.833333"/>
<path d="M10.001 11.6666L15.1343 8.81494C15.8097 10.53 16.0014 12.3976 15.6885 14.2141C13.5748 14.4193 11.582 15.2946 10.001 16.7124C8.42017 15.2948 6.4277 14.4194 4.31429 14.2141C4.00113 12.3976 4.19282 10.53 4.86846 8.81494L10.001 11.6666Z" stroke="white" stroke-width="0.833333"/>
<path d="M10 11.6667L17.5 7.50004L10 3.33337L2.5 7.50004L10 11.6667ZM10 11.6667L15.1333 8.81504C15.8088 10.5301 16.0005 12.3977 15.6875 14.2142C13.5738 14.4194 11.581 15.2947 10 16.7125C8.41921 15.2949 6.42674 14.4195 4.31333 14.2142C4.00017 12.3977 4.19186 10.5301 4.8675 8.81504L10 11.6667ZM6.66667 16.6667V10.4167L10 8.56504" stroke="white" stroke-width="1.66667" stroke-linecap="round" stroke-linejoin="round"/>
</svg>
