<svg width="16" height="16" viewBox="0 0 16 16" fill="none" xmlns="http://www.w3.org/2000/svg">
<path d="M10.6675 1.33325L9.13421 2.86659C8.76776 3.24044 8.5625 3.74308 8.5625 4.26659C8.5625 4.79009 8.76776 5.29273 9.13421 5.66659L10.3342 6.86659C10.7081 7.23304 11.2107 7.4383 11.7342 7.4383C12.2577 7.4383 12.7604 7.23304 13.1342 6.86659L14.6675 5.33325" stroke="#22326E" stroke-width="1.33333" stroke-linecap="round" stroke-linejoin="round"/>
<path d="M9.99978 9.99995L2.19978 2.19995C1.9337 2.46065 1.72232 2.77183 1.57801 3.11525C1.43371 3.45868 1.35938 3.82744 1.35938 4.19995C1.35938 4.57246 1.43371 4.94123 1.57801 5.28465C1.72232 5.62807 1.9337 5.93925 2.19978 6.19995L7.06645 11.0666C7.53312 11.5333 8.39978 11.5333 8.93312 11.0666L9.99978 9.99995ZM9.99978 9.99995L14.6665 14.6666" stroke="#22326E" stroke-width="1.33333" stroke-linecap="round" stroke-linejoin="round"/>
<path d="M1.40039 14.5333L5.66706 10.3333" stroke="#22326E" stroke-width="1.33333" stroke-linecap="round" stroke-linejoin="round"/>
<path d="M12.6667 3.33325L8 7.99992" stroke="#22326E" stroke-width="1.33333" stroke-linecap="round" stroke-linejoin="round"/>
</svg>
