<svg width="139" height="42" viewBox="0 0 139 42" fill="none" xmlns="http://www.w3.org/2000/svg">
<path d="M17.273 9.81925C18.0574 10.173 18.6617 10.6749 19.0855 11.3243C19.509 11.9744 19.7214 12.7436 19.7214 13.6332C19.7214 14.5114 19.5094 15.2779 19.0855 15.9337C18.6617 16.5893 18.0574 17.0912 17.273 17.4385C16.4883 17.7868 15.5636 17.9603 14.4981 17.9603H12.0754V21.261H9.29187V9.28955H14.4981C15.5633 9.28955 16.4883 9.46611 17.273 9.81925ZM16.2507 15.1642C16.6859 14.805 16.9035 14.2951 16.9035 13.6335C16.9035 12.9608 16.6859 12.4448 16.2507 12.0859C15.8152 11.7267 15.1797 11.547 14.3437 11.547H12.0757V15.7028H14.3437C15.1794 15.7025 15.8152 15.5232 16.2507 15.1642Z" fill="white"/>
<path d="M29.532 21.261L27.2124 17.9261H27.075H24.6523V21.261H21.8688V9.28955H27.075C28.1402 9.28955 29.0652 9.46611 29.8499 9.81955C30.6343 10.1733 31.2386 10.6752 31.6624 11.3246C32.0859 11.9747 32.2983 12.7439 32.2983 13.6335C32.2983 14.523 32.0835 15.2898 31.6541 15.934C31.2248 16.5783 30.6147 17.071 29.8244 17.4128L32.522 21.261H29.532ZM28.8273 12.0856C28.3918 11.7264 27.7563 11.5467 26.9203 11.5467H24.6523V15.7196H26.9203C27.7563 15.7196 28.3922 15.5375 28.8273 15.1725C29.2625 14.8074 29.4801 14.2948 29.4801 13.6332C29.4804 12.9605 29.2625 12.4448 28.8273 12.0856Z" fill="white"/>
<path d="M37.1101 20.6622C36.1078 20.1264 35.3234 19.3878 34.7562 18.4475C34.1891 17.5073 33.9058 16.4497 33.9058 15.2751C33.9058 14.1006 34.1894 13.0433 34.7562 12.1027C35.3231 11.1618 36.1078 10.4238 37.1101 9.888C38.1124 9.35219 39.2378 9.08398 40.4863 9.08398C41.7347 9.08398 42.8574 9.35219 43.8539 9.888C44.8503 10.4238 45.6348 11.1618 46.2077 12.1027C46.7804 13.0433 47.0667 14.1006 47.0667 15.2751C47.0667 16.4497 46.7804 17.507 46.2077 18.4475C45.6348 19.3881 44.8503 20.1264 43.8539 20.6622C42.8574 21.1981 41.7347 21.466 40.4863 21.466C39.2378 21.4657 38.1124 21.1981 37.1101 20.6622ZM42.4105 18.6186C42.9832 18.2933 43.4328 17.8402 43.7593 17.2589C44.0859 16.677 44.2491 16.0162 44.2491 15.2748C44.2491 14.534 44.0859 13.8724 43.7593 13.2907C43.4328 12.7094 42.9832 12.2564 42.4105 11.931C41.8375 11.6063 41.1961 11.4435 40.4863 11.4435C39.7758 11.4435 39.1344 11.606 38.562 11.931C37.9891 12.2564 37.5398 12.7094 37.2132 13.2907C36.8867 13.8721 36.7234 14.5337 36.7234 15.2748C36.7234 16.0162 36.8867 16.677 37.2132 17.2589C37.5398 17.8402 37.9891 18.2933 38.562 18.6186C39.1347 18.9433 39.7761 19.1055 40.4863 19.1055C41.1964 19.1055 41.8379 18.9433 42.4105 18.6186Z" fill="white"/>
<path d="M60.1688 21.261L60.1516 14.0782L56.6121 19.9954H55.3579L51.8356 14.2319V21.261H49.2239V9.28955H51.5263L56.0278 16.7289L60.4606 9.28955H62.7458L62.7801 21.261H60.1688Z" fill="white"/>
<path d="M74.5149 19.0377V21.261H65.2025V9.28955H74.2915V11.5128H67.9688V14.1125H73.5528V16.2673H67.9688V19.0377H74.5149Z" fill="white"/>
<path d="M99.3072 9.28955V21.261H96.5236V16.3525H91.06V21.261H88.2764V9.28955H91.06V14.0095H96.5236V9.28955H99.3072Z" fill="white"/>
<path d="M111.05 19.0377V21.261H101.737V9.28955H110.826V11.5128H104.503V14.1125H110.087V16.2673H104.503V19.0377H111.05Z" fill="white"/>
<path d="M117.644 20.0465C116.688 19.1001 116.21 17.749 116.21 15.9931V9.28906H118.993V15.8905C118.993 18.034 119.887 19.1053 121.674 19.1053C122.544 19.1053 123.208 18.8466 123.667 18.3276C124.124 17.8089 124.354 16.9963 124.354 15.8905V9.28906H127.103V15.9931C127.103 17.749 126.624 19.1001 125.668 20.0465C124.712 20.9929 123.374 21.4658 121.656 21.4658C119.938 21.4658 118.601 20.9929 117.644 20.0465Z" fill="white"/>
<path d="M131.14 21.0817C130.252 20.8251 129.539 20.4912 129.001 20.0812L129.946 17.9948C130.461 18.3705 131.074 18.6733 131.784 18.9009C132.494 19.1294 133.205 19.2433 133.915 19.2433C134.705 19.2433 135.289 19.1263 135.667 18.8923C136.045 18.6586 136.234 18.3479 136.234 17.9603C136.234 17.6753 136.122 17.4385 135.899 17.2507C135.675 17.0622 135.389 16.9113 135.04 16.7976C134.69 16.6837 134.218 16.5581 133.622 16.421C132.706 16.2047 131.956 15.9881 131.371 15.7715C130.787 15.5553 130.286 15.207 129.868 14.728C129.45 14.2493 129.241 13.6109 129.241 12.8127C129.241 12.1174 129.43 11.4872 129.808 10.9227C130.186 10.3584 130.756 9.91122 131.518 9.58008C132.279 9.24986 133.21 9.08398 134.31 9.08398C135.077 9.08398 135.827 9.17563 136.56 9.35769C137.293 9.54006 137.935 9.80216 138.485 10.1446L137.626 12.2481C136.514 11.6213 135.403 11.3073 134.293 11.3073C133.514 11.3073 132.938 11.4328 132.566 11.6836C132.194 11.9347 132.007 12.2649 132.007 12.6755C132.007 13.0861 132.222 13.3909 132.652 13.5907C133.081 13.7899 133.737 13.9869 134.619 14.1806C135.535 14.3969 136.286 14.6138 136.87 14.8307C137.454 15.0469 137.955 15.3891 138.373 15.8565C138.791 16.3238 139 16.9568 139 17.755C139 18.439 138.808 19.0631 138.425 19.6273C138.041 20.1918 137.465 20.6397 136.698 20.9702C135.93 21.3004 134.997 21.4657 133.897 21.4657C132.946 21.466 132.027 21.3377 131.14 21.0817Z" fill="white"/>
<path d="M11.2385 41.6043C10.3506 41.3477 9.63772 41.0144 9.09943 40.6039L10.0444 38.5175C10.5599 38.8938 11.1725 39.1959 11.8827 39.4235C12.5928 39.652 13.303 39.766 14.0131 39.766C14.8034 39.766 15.3877 39.649 15.7655 39.4156C16.1436 39.1816 16.3323 38.8709 16.3323 38.4832C16.3323 38.1985 16.2206 37.9621 15.9972 37.7736C15.7738 37.5851 15.4875 37.4342 15.1382 37.3206C14.7887 37.2066 14.316 37.0811 13.7207 36.9442C12.8043 36.728 12.0542 36.5111 11.4699 36.2942C10.8856 36.0779 10.3844 35.73 9.96641 35.2507C9.54811 34.772 9.33911 34.1335 9.33911 33.3353C9.33911 32.64 9.52816 32.0098 9.90595 31.4456C10.284 30.8811 10.8536 30.4339 11.6154 30.103C12.3771 29.7725 13.3079 29.6069 14.4075 29.6069C15.1747 29.6069 15.9251 29.6983 16.6583 29.8803C17.3911 30.0627 18.0329 30.3254 18.5825 30.6673L17.7235 32.7708C16.6122 32.1439 15.5013 31.8299 14.3903 31.8299C13.6111 31.8299 13.0357 31.9555 12.6634 32.2066C12.2911 32.4574 12.1049 32.7879 12.1049 33.1985C12.1049 33.6087 12.3197 33.9139 12.749 34.1131C13.1787 34.3128 13.8342 34.5093 14.7162 34.7029C15.6326 34.9198 16.383 35.1361 16.967 35.353C17.551 35.5699 18.0522 35.9117 18.4705 36.3794C18.8885 36.8468 19.0975 37.4797 19.0975 38.2777C19.0975 38.9616 18.9057 39.5857 18.5221 40.1506C18.1381 40.7148 17.5627 41.1623 16.7951 41.4931C16.0276 41.8237 15.0943 41.9892 13.9944 41.9892C13.0455 41.9889 12.126 41.8609 11.2385 41.6043Z" fill="white"/>
<path d="M23.4374 41.1935C22.4464 40.6635 21.6678 39.9282 21.1007 38.9873C20.5338 38.0467 20.2502 36.984 20.2502 35.7978C20.2502 34.6119 20.5338 33.5491 21.1007 32.6083C21.6675 31.6677 22.4464 30.9324 23.4374 30.4021C24.428 29.8721 25.5421 29.6069 26.7791 29.6069C27.8214 29.6069 28.7635 29.7893 29.6057 30.1541C30.4475 30.5191 31.1546 31.0436 31.7275 31.7279L29.9408 33.3695C29.1275 32.4348 28.1197 31.9674 26.9169 31.9674C26.1721 31.9674 25.508 32.1296 24.924 32.4543C24.3399 32.7796 23.8845 33.2327 23.558 33.814C23.2314 34.3959 23.0682 35.057 23.0682 35.7981C23.0682 36.5395 23.2314 37.2005 23.558 37.7822C23.8845 38.3635 24.3396 38.8165 24.924 39.1419C25.5083 39.4666 26.1724 39.6294 26.9169 39.6294C28.1197 39.6294 29.1275 39.1565 29.9408 38.2095L31.7275 39.8515C31.1546 40.5471 30.4444 41.0771 29.5971 41.4421C28.7491 41.8072 27.8042 41.9895 26.762 41.9895C25.5362 41.9889 24.428 41.7238 23.4374 41.1935Z" fill="white"/>
<path d="M44.6306 29.812V41.7834H41.8471V36.875H36.3834V41.7834H33.5999V29.812H36.3834V34.532H41.8471V29.812H44.6306Z" fill="white"/>
<path d="M49.931 41.1849C48.9287 40.6491 48.1442 39.911 47.5771 38.9702C47.0103 38.0296 46.7267 36.9723 46.7267 35.7978C46.7267 34.6238 47.0103 33.5663 47.5771 32.6254C48.1442 31.6848 48.9287 30.9468 49.931 30.4107C50.9333 29.8748 52.0587 29.6069 53.3071 29.6069C54.5556 29.6069 55.6782 29.8748 56.6747 30.4107C57.6712 30.9468 58.4556 31.6848 59.0286 32.6254C59.6013 33.5663 59.8876 34.6238 59.8876 35.7978C59.8876 36.9723 59.6013 38.0296 59.0286 38.9702C58.4556 39.911 57.6712 40.6491 56.6747 41.1849C55.6782 41.721 54.5556 41.9889 53.3071 41.9889C52.0587 41.9889 50.933 41.7213 49.931 41.1849ZM55.2314 39.1415C55.8041 38.8162 56.2537 38.3632 56.5802 37.7819C56.9067 37.2005 57.07 36.5392 57.07 35.7978C57.07 35.057 56.9067 34.3956 56.5802 33.8137C56.2537 33.2324 55.8041 32.7793 55.2314 32.454C54.6584 32.1293 54.017 31.9671 53.3071 31.9671C52.5967 31.9671 51.9553 32.1293 51.3829 32.454C50.8099 32.7793 50.3606 33.2324 50.0341 33.8137C49.7076 34.3956 49.5443 35.0567 49.5443 35.7978C49.5443 36.5392 49.7076 37.2002 50.0341 37.7819C50.3606 38.3632 50.8099 38.8162 51.3829 39.1415C51.9556 39.4663 52.597 39.6291 53.3071 39.6291C54.0173 39.6288 54.6587 39.4663 55.2314 39.1415Z" fill="white"/>
<path d="M64.4322 41.1849C63.4299 40.6491 62.6455 39.911 62.0783 38.9702C61.5115 38.0296 61.2279 36.9723 61.2279 35.7978C61.2279 34.6238 61.5115 33.5663 62.0783 32.6254C62.6455 31.6848 63.4299 30.9468 64.4322 30.4107C65.4345 29.8748 66.5599 29.6069 67.8084 29.6069C69.0568 29.6069 70.1794 29.8748 71.1759 30.4107C72.1724 30.9468 72.9568 31.6848 73.5298 32.6254C74.1025 33.5663 74.3888 34.6238 74.3888 35.7978C74.3888 36.9723 74.1025 38.0296 73.5298 38.9702C72.9568 39.911 72.1724 40.6491 71.1759 41.1849C70.1794 41.721 69.0568 41.9889 67.8084 41.9889C66.5599 41.9889 65.4345 41.7213 64.4322 41.1849ZM69.7326 39.1415C70.3053 38.8162 70.7549 38.3632 71.0814 37.7819C71.4079 37.2005 71.5712 36.5392 71.5712 35.7978C71.5712 35.057 71.4079 34.3956 71.0814 33.8137C70.7549 33.2324 70.3053 32.7793 69.7326 32.454C69.1596 32.1293 68.5182 31.9671 67.8084 31.9671C67.0979 31.9671 66.4565 32.1293 65.8841 32.454C65.3112 32.7793 64.8619 33.2324 64.5353 33.8137C64.2088 34.3956 64.0455 35.0567 64.0455 35.7978C64.0455 36.5392 64.2088 37.2002 64.5353 37.7819C64.8619 38.3632 65.3112 38.8162 65.8841 39.1415C66.4568 39.4663 67.0982 39.6291 67.8084 39.6291C68.5185 39.6288 69.1599 39.4663 69.7326 39.1415Z" fill="white"/>
<path d="M76.4849 29.812H79.2685V39.5262H85.2993V41.7834H76.4852V29.812H76.4849Z" fill="white"/>
<path d="M4.00469 9.27002H0V42H4.00469V9.27002Z" fill="white"/>
<path d="M80.6679 4.65824C80.6593 3.53438 79.9 2.03295 78.4665 1.60986C78.7044 2.12612 78.8544 3.03646 78.5933 3.87286C78.356 4.63289 77.6244 5.54535 77.4068 6.00816C76.8062 7.28628 77.1165 8.27084 77.2276 8.68048C77.9586 8.74219 78.5967 8.86621 79.173 9.04125C79.5453 7.02784 80.6783 6.01701 80.6679 4.65824Z" fill="#F0B323"/>
<path d="M83.9575 4.03446C83.9609 3.3621 83.809 2.1689 82.64 1.13455C82.2549 0.793937 81.266 0.179316 80.237 0C80.3687 0.227887 81.7055 1.13454 81.7273 3.43175C81.7488 5.6871 79.9709 7.02999 79.6027 9.18423C79.9893 9.32567 80.3496 9.49062 80.6943 9.67543C82.095 7.17845 83.9477 6.05215 83.9575 4.03446Z" fill="#F0B323"/>
<path d="M81.3308 10.0475C81.3308 10.0475 81.3314 10.0478 81.332 10.0481L81.3333 10.0475C82.4498 9.34272 83.6651 8.83287 85.4134 8.68197C85.755 7.41239 85.3812 6.06982 84.7085 4.91113C84.5584 5.49338 84.3316 5.90119 83.6525 6.68169C83.0141 7.41514 82.3316 7.99525 81.0706 9.888C81.158 9.93993 81.2446 9.99308 81.3308 10.0475Z" fill="#F0B323"/>
<path d="M86.169 9.26584C84.002 9.32113 82.6038 9.87069 81.3332 10.6729L81.3323 10.6735C81.3314 10.6735 81.3308 10.6732 81.3308 10.6732H81.3305C80.0599 9.871 78.6617 9.32144 76.4947 9.26615C76.3956 9.26371 76.0651 9.28264 76.0651 9.28264L76.0654 11.6061C77.3276 11.5756 78.1618 11.7341 79.1791 12.1816C79.699 12.4178 79.9479 12.839 79.9479 12.839H82.7158C82.7158 12.839 82.9647 12.4178 83.4846 12.1816C84.5019 11.7341 85.3361 11.5756 86.5983 11.6061V9.28264C86.5983 9.28264 86.2684 9.2634 86.169 9.26584Z" fill="#F0B323"/>
<path d="M82.7106 13.4258H79.9369V21.2604H82.7106V13.4258Z" fill="#F0B323"/>
</svg>
