<svg width="32" height="32" viewBox="0 0 32 32" fill="none" xmlns="http://www.w3.org/2000/svg">
<path d="M20.6357 17.1868L22.6557 28.5548C22.6783 28.6886 22.6595 28.8262 22.6018 28.9491C22.5442 29.072 22.4503 29.1744 22.3329 29.2425C22.2155 29.3106 22.0801 29.3413 21.9447 29.3304C21.8094 29.3195 21.6807 29.2675 21.5757 29.1814L16.8023 25.5988C16.5719 25.4266 16.292 25.3336 16.0043 25.3336C15.7167 25.3336 15.4368 25.4266 15.2063 25.5988L10.425 29.1801C10.3201 29.266 10.1915 29.3179 10.0563 29.3288C9.92117 29.3398 9.7859 29.3092 9.66855 29.2413C9.55121 29.1733 9.45737 29.0712 9.39956 28.9485C9.34175 28.8259 9.32272 28.6885 9.345 28.5548L11.3637 17.1868" stroke="#22326E" stroke-width="2.66667" stroke-linecap="round" stroke-linejoin="round"/>
<path d="M16 18.6667C20.4183 18.6667 24 15.085 24 10.6667C24 6.24847 20.4183 2.66675 16 2.66675C11.5817 2.66675 8 6.24847 8 10.6667C8 15.085 11.5817 18.6667 16 18.6667Z" stroke="#22326E" stroke-width="2.66667" stroke-linecap="round" stroke-linejoin="round"/>
</svg>
